<?xml version="1.0" standalone="no"?>
<!DOCTYPE svg PUBLIC "-//W3C//DTD SVG 20010904//EN"
 "http://www.w3.org/TR/2001/REC-SVG-20010904/DTD/svg10.dtd">
<svg version="1.0" xmlns="http://www.w3.org/2000/svg"
 width="700.000000pt" height="700.000000pt" viewBox="0 0 700.000000 700.000000"
 preserveAspectRatio="xMidYMid meet">
<metadata>
Created by potrace 1.14, written by Peter Selinger 2001-2017
</metadata>
<g transform="translate(0.000000,700.000000) scale(0.100000,-0.100000)"
fill="#000000" stroke="none">
<path d="M3450 6925 c-30 -12 -246 -109 -480 -215 -234 -105 -450 -203 -480
-217 -30 -13 -73 -33 -95 -43 -22 -10 -84 -39 -138 -64 -54 -25 -100 -46 -101
-46 -2 0 -57 -25 -122 -56 -114 -53 -183 -85 -194 -89 -3 -1 -50 -23 -105 -49
-55 -27 -133 -64 -174 -83 -234 -109 -299 -142 -327 -166 -29 -25 -45 -56
-129 -252 -7 -16 -34 -84 -60 -150 -26 -66 -53 -133 -60 -150 -32 -74 -208
-556 -258 -705 -136 -407 -202 -632 -292 -990 -40 -160 -70 -284 -81 -335 -2
-11 -6 -29 -8 -40 -13 -60 -37 -183 -56 -280 -11 -60 -22 -121 -25 -135 -3
-14 -16 -92 -30 -175 -14 -82 -32 -188 -40 -234 -24 -134 -20 -202 14 -269 74
-147 867 -1254 1041 -1455 33 -38 27 -43 -65 -52 -57 -6 -329 -59 -420 -81
-336 -84 -383 -219 -109 -315 63 -22 240 -63 314 -73 25 -3 56 -8 70 -11 14
-2 61 -8 105 -14 44 -5 103 -13 130 -16 28 -4 64 -8 80 -10 17 -2 53 -6 80
-10 28 -3 77 -8 110 -11 33 -2 74 -6 90 -9 17 -2 62 -7 100 -10 89 -7 166 -14
235 -20 30 -2 98 -7 150 -10 52 -3 131 -7 175 -10 306 -19 1966 -26 2245 -10
74 4 191 9 260 10 120 2 267 11 340 20 34 4 64 7 215 20 39 3 86 8 105 10 19
2 64 7 100 10 65 6 93 9 180 20 51 6 116 16 145 21 10 2 37 6 60 9 39 6 171
29 230 40 132 26 298 97 339 146 51 60 25 110 -87 163 -63 30 -111 44 -292 87
-84 20 -247 48 -320 55 -33 3 -64 9 -68 14 -4 4 3 20 16 36 27 33 261 343 293
389 55 79 356 505 381 540 86 119 316 459 347 513 47 83 51 113 31 218 -9 49
-19 100 -21 114 -7 37 -25 132 -29 155 -3 11 -14 67 -25 125 -12 58 -23 116
-26 130 -5 23 -39 183 -50 234 -3 11 -7 30 -9 41 -3 11 -21 85 -41 165 -19 80
-37 152 -39 160 -6 31 -128 449 -157 540 -128 404 -337 971 -462 1255 -8 17
-42 95 -76 175 -130 301 -173 390 -208 423 -36 34 -155 97 -667 351 -378 188
-462 228 -660 321 -38 18 -110 52 -160 75 -175 83 -256 120 -260 120 -2 0 -57
25 -122 56 -169 79 -245 112 -274 117 -13 3 -49 -5 -79 -18z"/>
</g>
</svg>
